<svg width="100" height="100" xmlns="http://www.w3.org/2000/svg">
 <style type="text/css">.st0{fill:#2D3C49;}
	.st1{fill:#FFFFFF;}
	.st2{opacity:0;fill:#E5E5E5;}
	.st3{fill:#02B3E4;}
	.st4{opacity:0;fill:#FFFFFF;}</style>

 <g>
  <title>background</title>
  <rect fill="none" id="canvas_background" height="102" width="102" y="-1" x="-1"/>
 </g>
 <g>
  <title>Layer 1</title>
  <g id="_x31_20-slate"/>
  <g id="_x34_80-wordmark-white"/>
  <g id="_x34_80-wordmark-blue"/>
  <g id="_x34_80-wordmark-slate"/>
  <g id="_x35_2-slate"/>
  <g id="_x31_20-blue"/>
  <g id="_x31_20-white"/>
  <g id="_x32_40-white"/>
  <g id="_x32_40-blue"/>
  <g id="_x32_40-slate"/>
  <g id="_x34_80-slate"/>
  <g id="_x34_80-blue"/>
  <g id="_x34_80-white"/>
  <g id="_x32_50-vert-white"/>
  <g id="_x32_50-vert-slate"/>
  <g id="_x32_50-vert-blue"/>
  <g id="_x35_00-vert-slate"/>
  <g id="_x35_00-vert-blue"/>
  <g id="_x35_00-vert-white"/>
  <g id="_x31_000-vert-slate"/>
  <g id="_x31_000-vert-blue"/>
  <g id="_x31_000-vert-white_1_"/>
  <g stroke="null" id="_x38_0-mark-white">
   <path stroke="null" d="m23.952556,20.999979l-23.909563,13.333002l0.001791,30.711533l0,0c-0.044785,14.104492 11.681596,25.572337 26.189991,25.615874c4.797318,0.013932 9.299059,-1.22254 13.175608,-3.394203l0,0l19.368412,-10.818262c7.64024,-3.853962 12.871073,-11.603683 12.899735,-20.551562l0.001791,-32.073394l0,0l0,0l-4.739994,-2.695858l-20.317844,10.668492l0.001791,0.001742l0,0l-0.007166,33.388235c-0.003583,1.421072 -0.109274,2.838662 -0.403061,4.214455c-0.286621,1.339221 -0.711178,2.654062 -1.262924,3.911432c-0.14331,0.325662 -0.295578,0.647842 -0.455011,0.966538c-0.802539,0.005225 -5.121558,-1.516855 -7.498721,-3.07899c-1.010339,-0.66874 -1.961562,-1.435004 -2.823217,-2.279637c-0.863446,-0.844632 -1.646279,-1.772857 -2.327004,-2.758552c-0.686099,-0.994402 -1.275463,-2.056724 -1.750179,-3.1591c-0.483673,-1.119791 -0.854489,-2.291827 -1.099908,-3.48302c-0.254376,-1.224282 -0.309909,-2.486877 -0.306326,-3.749472l0,0l0.016122,-32.071653l-4.754325,-2.697599zm11.475587,63.077501c-1.29696,0.529419 -3.104463,1.224282 -4.482035,1.494216c-1.416982,0.2769 -2.722899,0.416221 -4.184666,0.410996c-1.461767,-0.003483 -2.919951,-0.151511 -4.335142,-0.437119c-1.377572,-0.278642 -2.731856,-0.69138 -4.025233,-1.227765c-1.270089,-0.527678 -2.497185,-1.179002 -3.643669,-1.936559c-2.95757,-2.020152 -4.483827,-3.77037 -5.793326,-5.666874c-0.772085,-1.119791 -1.434896,-2.314467 -1.970519,-3.554422c-0.54458,-1.260853 -0.96018,-2.579177 -1.237844,-3.92014c-0.28483,-1.377535 -0.343945,-2.796865 -0.340362,-4.217938l0.005374,-28.031349l17.908436,-10.638886l0,29.39321l-0.001791,0c-0.035828,11.168305 8.424865,20.492351 19.226893,22.744124c-0.422766,0.491106 -0.729092,0.964797 -1.196643,1.415848c-2.008138,1.981839 -3.695619,3.2514 -5.929471,4.172659zm30.584249,-24.395076c-0.254376,1.189452 -0.632358,2.359746 -1.121405,3.477796c-0.481882,1.098893 -1.078411,2.157731 -1.769884,3.148651c-0.68789,0.982212 -2.825008,3.577062 -5.775413,5.215823c-2.950405,1.638761 -5.521036,2.11071 -7.203143,2.422441c1.085577,-2.786416 1.839748,-5.586765 1.850497,-8.742381l0,0l0,-30.715016l0,0l14.331048,-8.000498l0.005374,29.39321c-0.005374,1.262595 -0.055533,2.577435 -0.317074,3.799975z" class="st3" id="mark_28_"/>
  </g>
  <g id="_x38_0-mark-blue"/>
  <g id="_x38_0-mark-slate"/>
  <g id="_x31_60-mark-blue"/>
  <g id="_x31_60-mark-white"/>
  <g id="_x31_60-mark-slate"/>
  <g id="_x33_20-mark-blue"/>
  <g id="_x33_20-mark-white"/>
  <g id="_x33_20-mark-slate"/>
 </g>
</svg>